<?xml version="1.0" encoding="utf-8" ?>
<svg baseProfile="full" height="300mm" version="1.1" viewBox="0,0,200,300" width="200mm" xmlns="http://www.w3.org/2000/svg" xmlns:ev="http://www.w3.org/2001/xml-events" xmlns:xlink="http://www.w3.org/1999/xlink"><defs /><rect fill="#222222" height="300" width="200" x="0" y="0" /><text fill="#FFFFFF" style="font-size:12px; font-family:Arial; font-weight:bold;" x="10" y="20">Over 1.5km Runs</text><text fill="#FFFFFF" style="font-size:4px; font-family:Arial" x="10" y="280">Runner</text><text fill="#FFFFFF" style="font-size:9px; font-family:Arial" x="10" y="290">yiling615</text><text fill="#FFFFFF" style="font-size:4px; font-family:Arial" x="65" y="280">SPECIAL TRACKS</text><rect fill="yellow" height="2.6" width="2.6" x="65" y="283" /><text fill="#FFFFFF" style="font-size:3px; font-family:Arial" x="70" y="285.5">Over 20.0 km</text><rect fill="red" height="2.6" width="2.6" x="65" y="287" /><text fill="#FFFFFF" style="font-size:3px; font-family:Arial" x="70" y="289.5">Over 40.0 km</text><text fill="#FFFFFF" style="font-size:4px; font-family:Arial" x="120" y="280">STATISTICS</text><text fill="#FFFFFF" style="font-size:3px; font-family:Arial" x="120" y="285">Number: 3</text><text fill="#FFFFFF" style="font-size:3px; font-family:Arial" x="120" y="290">Weekly: 1.5</text><text fill="#FFFFFF" style="font-size:3px; font-family:Arial" x="141" y="285">Total: 9.2 km</text><text fill="#FFFFFF" style="font-size:3px; font-family:Arial" x="141" y="290">Avg: 3.1 km</text><text fill="#FFFFFF" style="font-size:3px; font-family:Arial" x="167" y="285">Min: 2.1 km</text><text fill="#FFFFFF" style="font-size:3px; font-family:Arial" x="167" y="290">Max: 3.9 km</text><polyline fill="none" points="57.70976491831243,78.35099678090774 57.2703435793519,73.56426528724842 57.12386980000883,67.34149815875571 56.83092224225402,65.5863554031821 56.68444846291095,61.75694797548931 56.97739602159709,58.40621079131961 57.8562386976555,56.65106062532868 59.02802893333137,55.0554683014052 59.174502711743116,48.35396740376018 58.88155515305698,48.19440759997815 58.73508137371391,46.59880889963824 58.295660035684705,45.64144910161849 57.70976491831243,45.32232907321304 56.83092224225402,45.32232907321304 52.583182639442384,47.077488636015914 51.70433996338397,47.715728115988895 45.40596744976938,50.10912445187569 42.62296564131975,52.502518081106246 41.74412296526134,52.981196482200176 38.0822784807533,53.938552959123626 36.47106690797955,54.73634969221894 33.98101265821606,54.895909002632834 26.80379746761173,57.76797453581821 20.21247739624232,59.84224166278727 19.333634719252586,61.278271559625864 19.333634719252586,62.23562428273726 19.626582277938724,63.192976573016495 19.333634719252586,67.50105651828926 19.626582277938724,68.77752296626568 21.970162748359144,71.64956965809688 22.849005424417555,75.31940142554231 15.671790234744549,78.03188168490306 14.5,79.62745668389834 14.5,82.97816026583314 14.792947557754815,83.6163889177842 14.792947557754815,85.05240268167108 15.52531645540148,87.12664306454826 18.89421338122338,91.91334388079122 19.773056057281792,93.98757753847167 20.505424953997135,94.78535917343106 20.798372513614595,95.42358426505234 25.33905967324972,100.52937806618866 26.510849908925593,101.48671303223819 27.82911392301321,103.24182601261418 30.465641952119768,104.99693753721658 33.68806509952992,105.95427048276179 36.17811934929341,106.4329367930768 38.66817359812558,105.95427048276179 39.83996383380145,105.95427048276179 41.158227847889066,106.5924922056729 43.06238697934896,106.91160299535841 47.01717902254313,108.50715622026473 48.33544303756207,108.66671147639863 48.92133815493435,108.34760095144156 49.65370705164969,108.34760095144156 51.85081374272704,109.1453771732049 53.60849909577519,109.46448757743929 62.98282097559422,109.62404276186135 65.32640144601464,109.46448757743929 67.523508137092,109.78359793382697 73.6754068704322,109.78359793382697 76.45840867981315,109.46448757743929 78.50904159154743,109.46448757743929 79.38788426760584,109.1453771732049 80.12025316432118,108.34760095144156 82.75678119342774,104.35871533316094 83.63562386948615,103.0822703470476 87.00452079623938,96.06180916342419 88.46925858873874,90.79644799220841 88.61573236901313,88.08398409397341 88.90867992769927,87.60531363345217 88.76220614742488,86.00974464963656 89.34810126572847,82.97816026583314 89.34810126572847,80.74435846728738 89.64104882441461,79.46789923799224 89.49457504507154,78.82966933434363 89.64104882441461,77.39365134830587 89.05515370704234,73.88338105694856 88.90867992769927,71.96868571662344 88.02983725070953,68.45840642659459 87.88336347136647,66.54370617761742 87.29746835399419,64.15032843011431 87.00452079623938,59.363564813975245 86.56509945727885,58.08709268749226 86.56509945727885,56.491501446580514 85.83273056149483,54.098112329724245 86.12567811924964,51.226041816174984 85.68625678122044,49.47088569391053 85.97920433990657,48.51352719543502 83.63562386948615,44.36496869777329 81.87793851736933,42.13112613779958 79.24141048826277,40.695083246566355 77.19077757652849,40.21640206617303 72.21066907700151,41.1737643184606 65.91229656338692,42.76936710975133 61.2251356234774,43.56716805405449 59.467450270429254,44.52452879026532 57.12386980000883,45.00320899602957 54.34086799249053,46.27968901512213 52.583182639442384,47.396608400158584 51.26491862535477,47.55616826436017 46.28481012582779,49.94956478069071 44.673598553054035,50.4282437589718 41.74412296526134,52.502518081106246 36.47106690797955,54.41723103530239 32.809222421608865,55.37458686239552 31.051537070423365,55.0554683014052 30.026220614090562,56.01282383990474 29.29385171737522,56.331942256423645 27.24321880657226,56.81061979115475 24.75316455680877,58.08709268749226 20.21247739624232,59.68268272501882 19.187160939909518,60.3209184036823 18.74773960094899,61.11871273035649 19.187160939909518,64.30988703062758 18.89421338122338,66.86282300611492 19.773056057281792,68.77752296626568 21.384267630055547,70.0539886438055 21.970162748359144,71.01133739692159 22.40958408638835,71.96868571662344 22.995479203760624,75.00028587214183 23.727848100475967,75.31940142554231 24.313743218779564,75.15984365495387 26.217902350239456,73.88338105694856 32.22332730516791,71.17089547996875 32.809222421608865,71.17089547996875 33.68806509952992,71.80912769318093 33.68806509952992,76.75542081950698 34.127486436627805,80.42524373193737 34.127486436627805,82.97816026583314 34.42043399531394,84.57373153523076 34.273960216902196,84.89284564496484 34.566907775588334,89.67955151386559 34.42043399531394,94.14713388960809 35.15280289296061,96.22136535821483 35.88517178967595,97.01914615067653 37.93580470047891,97.49781448219437 43.94122965633869,99.73159859643783 44.96654611080885,99.73159859643783 46.57775768451393,100.36982219596393 48.33544303756207,100.68893392372411 52.583182639442384,100.84848976961803 58.295660035684705,100.68893392372411 58.73508137371391,100.36982219596393 59.02802893333137,99.73159859643783 59.02802893333137,99.09337480436079 59.61392404977232,97.49781448219437 59.174502711743116,96.70003386971075 59.467450270429254,94.46624655544292 59.174502711743116,93.508908413467 58.73508137371391,92.87068274477497 56.97739602159709,92.232456883532 56.83092224225402,88.40309767401777 56.53797468263656,87.60531363345217 56.39150090422481,86.32885854225606 51.1184448460117,85.69063070823904 38.52169981878251,85.8501876849914 34.42043399531394,85.53107371984515 33.98101265821606,84.41417446290143 34.127486436627805,81.06347315444145 33.83453887794167,80.58480110578239 33.98101265821606,79.14878431044053 33.83453887794167,72.76647565222811 34.127486436627805,71.80912769318093 34.127486436627805,67.50105651828926 34.42043399531394,64.94812131347135 35.29927667230368,64.62900419626385 38.37522603943944,64.78856276057195 41.4511754065752,64.62900419626385 44.23417721502483,64.78856276057195 49.80018083192408,64.78856276057195 52.29023508075625,64.94812131347135 54.34086799249053,64.78856276057195 56.245027124881744,64.15032843011431 56.83092224225402,61.11871273035649 56.68444846291095,60.95915388909634 56.97739602159709,58.565769825247116 59.02802893333137,54.2576716884505 58.88155515305698,46.7583688236773 58.588607595302165,45.00320899602957 58.88155515305698,44.04584847623482 59.76039783004671,43.56716805405449 64.30108499061316,43.088487523491494 71.62477395962924,41.65244528232142 76.01898734178394,41.01420397288166 79.38788426760584,41.49288497294765 81.29204339999706,42.450246647465974 82.61030741408467,44.04584847623482 84.66094032488763,47.55616826436017 85.53978300187737,49.94956478069071 85.68625678122044,51.226041816174984 86.56509945727885,54.098112329724245 86.71157323662192,59.04444685461931 87.00452079623938,60.48047729290556 86.85804701596498,61.11871273035649 87.59041591268033,63.03341788821854 88.17631103098392,63.99076981714461 88.61573236901313,64.4694456193829 89.34810126572847,64.62900419626385 93.00994575023651,64.30988703062758 95.20705244131386,63.83121119241696 95.5,63.99076981714461" stroke="#4DD2FF" stroke-linecap="round" stroke-linejoin="round" stroke-width="0.5"><title>2025-04-25 3.9km</title><desc>14282101435</desc></polyline><polyline fill="none" points="176.6581543451175,99.0001608976163 172.98764369729906,99.25015907362103 172.52882986608893,99.0001608976163 172.29942295048386,84.50023433775641 171.61120220366865,81.7502410938032 170.0053537953645,79.25024525239132 167.252470809035,77.00024737883359 163.58196016028523,75.75024789897725 159.45263568032533,75.75024789897725 156.92915960773826,76.75024752062745 153.94686970673501,79.00024556438439 152.34102129749954,81.7502410938032 151.65280055068433,84.25023504602723 151.8822074662894,106.25010033859871 152.79983512870967,109.25007063057274 154.1762766232714,111.50004656426609 157.15856652427465,113.75002096733078 159.68204259499907,114.75000909902155 162.8937394125387,115.0000060852617 165.41721548419446,114.50001209485345 168.39950538612902,113.00002966960892 170.23476071003824,111.25004931399599 171.38179528806359,109.75006541493349 172.52882986608893,106.0001026908867 172.29942295048386,97.50017144274898 172.52882986608893,85.75023051025346 171.61120220366865,81.5002415953204 170.23476071003824,78.750245857751 166.3348431456834,75.75024789897725 162.20551866665483,75.25024797441438 159.22322876472026,75.5002479464747 156.24093886185437,77.00024737883359 154.1762766232714,78.750245857751 152.1116143828258,82.00024057459086 151.4233936360106,84.50023433775641 151.19398672040552,104.75011417199858 152.34102129749954,109.50006803264841 153.71746279019862,111.75004379544407 156.69975269399583,114.0000180285424 161.28789100423455,115.0000060852617 163.81136707495898,115.0000060852617 167.0230638924986,114.0000180285424 169.54653996322304,112.25003820168786 171.61120220366865,109.50006803264841 172.52882986608893,107.25009073852561 172.52882986608893,83.50023705954663 172.29942295048386,81.7502410938032 170.69357454124838,79.00024556438439 168.85831921640784,77.50024703866802 165.1878085685894,76.00024783262052 162.66433249786496,75.5002479464747 159.22322876472026,75.75024789897725 156.47034577745944,77.00024737883359 153.94686970673501,79.00024556438439 152.1116143828258,82.50023947795853 151.4233936360106,85.50023131421767 151.65280055068433,104.50011641113088 151.19398672040552,107.25009073852561 155.09390428382903,112.75003253202885 157.38797343987972,114.50001209485345 161.05848408862948,115.5 165.1878085685894,115.0000060852617 168.85831921640784,113.25002678739838 170.92298145685345,111.00005204440095 172.29942295048386,108.00008333963342 172.75823678076267,103.25012732483447 172.75823678076267,95.75018288567662 172.52882986608893,84.25023504602723 172.0700160348788,80.00024420325644 171.15238837338984,78.750245857751 168.85831921640784,77.25024721841328 165.1878085685894,75.75024789897725 162.8937394125387,75.25024797441438 160.14085642714053,75.5002479464747 156.92915960773826,76.50024764379486 154.40568353794515,78.750245857751 153.02924204431474,80.75024298462085 152.1116143828258,82.75023890193552 151.65280055068433,84.75023361016065 151.8822074662894,86.50022798776627 151.4233936360106,105.500107340049 151.65280055068433,107.25009073852561 153.4880558764562,111.50004656426609 155.5527181159705,113.5000238865614 157.38797343987972,114.75000909902155 160.82907717302442,115.5 163.35255324468017,115.5 166.56425006128848,114.50001209485345 169.54653996322304,112.25003820168786 171.38179528806359,110.00006277859211 172.52882986608893,107.0000931660179 172.75823678076267,105.25010963599198 172.52882986608893,83.50023705954663 171.61120220366865,80.75024298462085 169.54653996322304,78.25024638674222 164.95840165298432,75.75024789897725 163.12314632814378,75.5002479464747 160.14085642714053,75.5002479464747 156.24093886185437,77.00024737883359 153.71746279019862,79.50024492153898 151.4233936360106,83.75023640715517 151.65280055068433,98.25016625528224 151.19398672040552,100.75014773476869 151.65280055068433,106.0001026908867 152.34102129749954,108.50007831235416 153.2586489599198,110.50005744956434 154.86449736822397,112.25003820168786 157.84678727108985,114.0000180285424 158.07619418669492,113.5000238865614 157.61738035548478,112.75003253202885 155.5527181159705,112.00004100822844 153.94686970673501,110.50005744956434 152.1116143828258,110.00006277859211 151.65280055068433,108.25008083553985 150.96457980480045,107.50008829054423 147.52347607165575,107.0000931660179 147.29406915511936,106.50009796675295 146.83525532484055,106.50009796675295 146.37644149456173,107.25009073852561 145.91762766242027,106.7500955760479 145.91762766242027,106.25010033859871 146.37644149456173,106.0001026908867 147.98228990193456,105.75010502501391 148.89991756528616,105.25010963599198 146.83525532484055,102.25013571605086 147.52347607165575,102.00013776635751 147.0646622404456,94.2501919567585 147.29406915511936,94.00019340286963 147.98228990193456,92.25020299386233 147.98228990193456,89.50021619466133 147.29406915511936,88.00022243149579 147.75288298819214,82.75023890193552 146.14703457802534,79.75024457229301 145.2294069165364,75.0002479837276 144.31177925411612,73.50024764426053 144.31177925411612,71.50024613295682 143.85296542290598,68.75024207960814 144.08237233757973,63.250227112555876 143.85296542290598,60.00021396926604 145.2294069165364,57.25020035356283 146.14703457802534,56.50019624293782 149.35873139556497,55.750191962346435 149.58813831210136,54.750185990706086 149.58813831210136,53.5001781003084 148.67051064874977,52.500171448336914 148.67051064874977,51.750166260870174 149.58813831210136,50.00015349523164 149.1293244799599,49.75015159579925 147.0646622404456,49.50014967797324 145.91762766242027,50.50015723728575 144.5411861697212,50.7501590794418 143.6235585073009,52.00016800942831 142.47652392927557,52.75017313985154 142.2471170136705,53.5001781003084 141.10008243657649,53.75017971685156 134.67668879963458,58.500206825789064 133.52965422254056,60.00021396926604 131.92380581516773,60.75021728570573 128.25329516548663,63.750228851567954 127.56507441867143,63.000226215226576 127.33566750399768,62.500224362825975 126.18863292690367,61.750221443362534 125.72981909383088,60.75021728570573 125.04159834701568,60.25021509360522 124.12397068645805,60.75021728570573 122.2887153616175,63.000226215226576 120.45346003770828,64.75023210188374 118.38879779819399,65.75023504951969 117.01235630363226,67.0002383091487 114.0300664016977,68.75024207960814 113.34184565488249,69.75024381792173 114.7182871485129,69.5002434111666 121.82990152947605,62.75022529857233 124.58278451673687,61.00021835346706 128.4827020810917,57.25020035356283 133.3002473069355,53.75017971685156 135.82372337859124,50.7501590794418 138.1177925337106,49.50014967797324 139.494234027341,48.000137771712616 140.64126860536635,47.75013572140597 147.29406915511936,42.750090742949396 147.52347607165575,41.75008083949797 148.89991756528616,40.00006278208457 149.8175452267751,37.500035378849134 150.73517288919538,36.250020968262106 150.73517288919538,35.25000909995288 150.96457980480045,34.5" stroke="#4DD2FF" stroke-linecap="round" stroke-linejoin="round" stroke-width="0.5"><title>2025-04-24 3.1km</title><desc>14268683593</desc></polyline><polyline fill="none" points="63.132860040757805,219.09439862135332 62.9685598379001,219.09439862135332 62.9685598379001,218.9154388976749 62.557809330523014,218.82595902553294 60.01115618646145,219.3628381562885 57.46450304239988,219.18387847323902 56.72515213023871,219.3628381562885 56.2322515216656,219.81023724679835 53.685598377138376,220.3471159323817 51.46754563879222,220.61555518431123 50.15314401593059,220.97347409231588 49.49594320496544,220.79451465187594 48.67444219067693,221.15243350586388 47.68864097399637,221.33139289275277 42.841784989926964,221.9577505333582 40.78803245443851,222.4946282482706 39.14503042586148,223.21046482364181 36.51622718060389,223.47890342830215 35.44827586226165,224.01578045554925 32.6551724136807,224.6421366801951 31.176470588427037,225.08953378163278 29.69776876317337,225.35797196114436 28.054766734596342,226.1632861365797 26.82251521293074,226.1632861365797 24.768762677907944,226.96859976579435 22.468559837900102,227.05807902419474 21.072008113842458,227.3265167591162 19.264705882407725,228.31078793399502 18.032454360742122,228.75818365311716 16.63590263715014,229.56349552236497 15.321501014288515,230.01089076965582 15.07505070976913,230.36880684574135 15.07505070976913,230.90568075794727 14.58215010119602,232.15838560904376 14.5,232.78473753901199 14.992900608573109,232.96369517256971 15.978701825719327,232.60577987856232 19.01825557788834,231.88994896644726 21.72920892527327,230.81620178953744 24.60446247458458,230.10036979871802 26.083164300303906,229.20557920343708 28.136916835792363,228.93714189343154 28.54766734270379,229.1161001069704 29.287018255796283,229.74245364160743 29.61561866151169,230.7267228141427 29.69776876317337,231.62151226319838 30.190669370815158,232.33734333701432 31.42292089248076,233.23213157244027 31.997971602715552,234.2163978527533 32.244421906769276,235.02170602069236 32.244421906769276,235.46909921127371 31.997971602715552,235.82701364241075 32.16227180510759,236.1849279658636 32.737322515342385,236.3638850870775 34.38032454345375,236.27440652949736 37.1734279920347,235.46909921127371 40.4594320487231,234.305876564933 44.074036511126906,232.15838560904376 46.292089249938726,231.17411762301344 47.60649087233469,230.81620178953744 50.235294117592275,230.36880684574135 53.60344827640802,230.81620178953744 56.06795131834224,230.81620178953744 59.764705882407725,229.9214117337251 60.914807302411646,229.47401645279024 62.39350912766531,229.20557920343708 64.52941176481545,228.579225385678 66.0902636917308,228.31078793399502 66.66531440196559,227.50547521514818 67.48681541578844,227.3265167591162 68.39046653127298,226.7896412286209 69.8691683569923,225.53693071415182 71.59432048723102,224.82109554100316 72.41582150105387,224.1947394106537 72.99087221128866,223.47890342830215 73.1551724136807,222.7630670145154 73.1551724136807,222.04723016929347 72.82657200843096,220.43659568985458 72.6622718051076,219.989196835435 72.33367139985785,219.81023724679835 69.70486815460026,220.61555518431123 62.639959432184696,222.1367097987095 62.9685598379001,221.8682708905544 66.00811359006912,220.88399437547196 68.80121703865007,220.3471159323817 71.59432048723102,219.4523179878015 72.6622718051076,219.3628381562885 74.55172413773835,219.4523179878015 77.75557809323072,219.18387847323902 79.72718052752316,218.73647914687172 80.6308316430077,218.3785595644731 81.69878296134993,217.39428015658632 82.02738336706534,216.5889600343071 82.52028397563845,216.4099999330938 85.55983772827312,216.05207964929286 87.03853955399245,215.69415925792418 88.5993914809078,215.0677983132191 92.13184584164992,214.2624766129302 93.28194726165384,214.17299639049452 94.18559837713838,214.2624766129302 94.92494929023087,213.99403592490125 95.1713995942846,213.72559517610352 95.5,213.6361149129225" stroke="#4DD2FF" stroke-linecap="round" stroke-linejoin="round" stroke-width="0.5"><title>2025-04-18 2.1km</title><desc>14213136519</desc></polyline></svg>