<?xml version="1.0" encoding="utf-8" ?>
<svg baseProfile="full" height="300mm" version="1.1" viewBox="0,0,200,300" width="200mm" xmlns="http://www.w3.org/2000/svg" xmlns:ev="http://www.w3.org/2001/xml-events" xmlns:xlink="http://www.w3.org/1999/xlink"><defs /><rect fill="#222222" height="300" width="200" x="0" y="0" /><text fill="#FFFFFF" style="font-size:12px; font-family:Arial; font-weight:bold;" x="10" y="20">Path</text><text fill="#FFFFFF" style="font-size:4px; font-family:Arial" x="10" y="280">ATHLETE</text><text fill="#FFFFFF" style="font-size:9px; font-family:Arial" x="10" y="290">Yiling</text><text fill="#FFFFFF" style="font-size:4px; font-family:Arial" x="65" y="280">SPECIAL TRACKS</text><rect fill="yellow" height="2.6" width="2.6" x="65" y="283" /><text fill="#FFFFFF" style="font-size:3px; font-family:Arial" x="70" y="285.5">Over 20.0 km</text><rect fill="red" height="2.6" width="2.6" x="65" y="287" /><text fill="#FFFFFF" style="font-size:3px; font-family:Arial" x="70" y="289.5">Over 40.0 km</text><text fill="#FFFFFF" style="font-size:4px; font-family:Arial" x="120" y="280">STATISTICS</text><text fill="#FFFFFF" style="font-size:3px; font-family:Arial" x="120" y="285">Number: 1</text><text fill="#FFFFFF" style="font-size:3px; font-family:Arial" x="120" y="290">Weekly: 1.0</text><text fill="#FFFFFF" style="font-size:3px; font-family:Arial" x="141" y="285">Total: 2.1 km</text><text fill="#FFFFFF" style="font-size:3px; font-family:Arial" x="141" y="290">Avg: 2.1 km</text><text fill="#FFFFFF" style="font-size:3px; font-family:Arial" x="167" y="285">Min: 2.1 km</text><text fill="#FFFFFF" style="font-size:3px; font-family:Arial" x="167" y="290">Max: 2.1 km</text><polyline fill="none" points="116.26572008151561,138.18879724270664 115.9371196758002,138.18879724270664 115.9371196758002,137.8308777953498 115.11561866104603,137.65191805106588 110.0223123729229,138.72567631257698 104.92900608479977,138.36775694647804 103.45030426047742,138.72567631257698 102.4645030433312,139.6204744935967 97.37119675427675,140.69423186476342 92.93509127758443,141.23111036862247 90.30628803186119,141.94694818463176 88.99188640993088,141.5890293037519 87.34888438135386,142.30486701172777 85.37728194799274,142.66278578550555 75.68356997985393,143.9155010667164 71.57606490887702,144.9892564965412 68.29006085172296,146.42092964728363 63.03245436120778,146.9578068566043 60.896551724523306,148.0315609110985 55.310344827361405,149.28427336039022 52.352941176854074,150.17906756326556 49.39553752634674,150.71594392228872 46.109533469192684,152.3265722731594 43.64503042586148,152.3265722731594 39.53752535581589,153.9371995315887 34.937119675800204,154.11615804838948 32.144016227684915,154.6530335182324 28.52941176481545,156.62157586799003 26.064908721484244,157.51636730623432 23.271805274300277,159.12699104472995 20.64300202857703,160.02178153931163 20.15010141953826,160.7376136914827 20.15010141953826,161.81136151589453 19.16430020239204,164.31677121808752 19.0,165.56947507802397 19.985801217146218,165.92739034513943 21.957403651438653,165.21155975712463 28.03651115577668,163.77989793289453 33.45841785054654,161.6324035790749 39.20892494916916,160.20073959743604 42.16632860060781,158.41115840687416 46.273833671584725,157.8742837868631 47.09533468540758,158.2322002139408 48.57403651159257,159.48490728321485 49.23123732302338,161.4534456282854 49.39553752634674,163.24302452639677 50.381338741630316,164.67468667402864 52.84584178496152,166.46426314488053 53.995943205431104,168.43279570550658 54.48884381353855,170.04341204138473 54.48884381353855,170.93819842254743 53.995943205431104,171.6540272848215 54.32454361021519,172.36985593172722 55.47464503068477,172.727770174155 58.760649086907506,172.5488130589947 64.3468559840694,170.93819842254743 70.9188640974462,168.61175312986597 78.14807302225381,164.31677121808752 82.58417849987745,162.3482352460269 85.21298174466938,161.6324035790749 90.47058823518455,160.7376136914827 97.20689655281603,161.6324035790749 102.13590263668448,161.6324035790749 109.52941176481545,159.84282346745022 111.82961460482329,158.94803290558048 114.78701825533062,158.41115840687416 119.0588235296309,157.158450771356 122.1805273834616,156.62157586799003 123.33062880393118,155.01095043029636 124.97363083157688,154.6530335182324 126.78093306254596,153.5792824572418 129.7383367139846,151.07386142830364 133.18864097446203,149.64219108200632 134.83164300210774,148.38947882130742 135.98174442257732,146.9578068566043 136.3103448273614,145.5261340290308 136.3103448273614,144.09446033858694 135.65314401686192,140.87319137970917 135.3245436102152,139.97839367087 134.6673427997157,139.6204744935967 129.40973630920053,141.23111036862247 115.27991886436939,144.27341959741898 115.9371196758002,143.73654178110883 122.01622718013823,141.7679887509439 127.60243407730013,140.69423186476342 133.18864097446203,138.90463597560301 135.3245436102152,138.72567631257698 139.1034482754767,138.90463597560301 145.51115618646145,138.36775694647804 149.45436105504632,137.47295829374343 151.2616632860154,136.75711912894621 153.39756592269987,134.78856031317264 154.05476673413068,133.17792006861418 155.0405679512769,132.81999986618757 161.11967545654625,132.10415929858573 164.0770791079849,131.38831851584837 167.1987829618156,130.1355966264382 174.26369168329984,128.52495322586037 176.56389452330768,128.34599278098904 178.37119675427675,128.52495322586037 179.84989858046174,127.98807184980251 180.3427991885692,127.45119035220705 181.0,127.27222982584499" stroke="#4DD2FF" stroke-linecap="round" stroke-linejoin="round" stroke-width="0.5"><title>2025-04-18 2.1km</title><desc>14213136519</desc></polyline></svg>