<?xml version="1.0" encoding="utf-8" ?>
<svg baseProfile="full" height="300mm" version="1.1" viewBox="0,0,200,300" width="200mm" xmlns="http://www.w3.org/2000/svg" xmlns:ev="http://www.w3.org/2001/xml-events" xmlns:xlink="http://www.w3.org/1999/xlink"><defs /><rect fill="#222222" height="300" width="200" x="0" y="0" /><text fill="#FFFFFF" style="font-size:12px; font-family:Arial; font-weight:bold;" x="10" y="20">Over 3km Runs</text><text fill="#FFFFFF" style="font-size:4px; font-family:Arial" x="10" y="280">Runner</text><text fill="#FFFFFF" style="font-size:9px; font-family:Arial" x="10" y="290">yiling615</text><text fill="#FFFFFF" style="font-size:4px; font-family:Arial" x="65" y="280">SPECIAL TRACKS</text><rect fill="yellow" height="2.6" width="2.6" x="65" y="283" /><text fill="#FFFFFF" style="font-size:3px; font-family:Arial" x="70" y="285.5">Over 5.0 km</text><rect fill="red" height="2.6" width="2.6" x="65" y="287" /><text fill="#FFFFFF" style="font-size:3px; font-family:Arial" x="70" y="289.5">Over 10.0 km</text><text fill="#FFFFFF" style="font-size:4px; font-family:Arial" x="120" y="280">STATISTICS</text><text fill="#FFFFFF" style="font-size:3px; font-family:Arial" x="120" y="285">Number: 2</text><text fill="#FFFFFF" style="font-size:3px; font-family:Arial" x="120" y="290">Weekly: 2.0</text><text fill="#FFFFFF" style="font-size:3px; font-family:Arial" x="141" y="285">Total: 7.0 km</text><text fill="#FFFFFF" style="font-size:3px; font-family:Arial" x="141" y="290">Avg: 3.5 km</text><text fill="#FFFFFF" style="font-size:3px; font-family:Arial" x="167" y="285">Min: 3.1 km</text><text fill="#FFFFFF" style="font-size:3px; font-family:Arial" x="167" y="290">Max: 3.9 km</text><polyline fill="none" points="103.61301989201456,94.46799570787698 103.02712477371097,88.08568704966456 102.83182640187442,79.78866421151906 102.44122965727001,77.44847387098707 102.24593128450215,72.34259730041958 102.63652802910656,67.87494772160426 103.80831826478243,65.53474750043824 105.37070524506271,63.407291068462655 105.56600361689925,54.471956538269296 105.17540687229484,54.25921013322659 104.98010849859565,52.13174519944005 104.3942133821547,50.855265468824655 103.61301989201456,50.42977209761739 102.44122965727001,50.42977209761739 96.77757685352117,52.76998484809883 95.60578661877662,53.62097082124092 87.20795660000294,56.81216593575664 83.49728752300143,60.003357441397384 82.32549728732556,60.641595309600234 77.4430379755795,61.918070612242445 75.29475587792695,62.98179958947003 71.97468354552984,63.19454533676617 62.40506329201162,67.02396604768 53.616636528633535,69.78965555038303 52.444846293888986,71.70436207950115 52.444846293888986,72.98083237698302 52.835443038493395,74.25730209727772 52.444846293888986,80.00140869105235 52.835443038493395,81.7033639550209 55.96021699812263,85.53275954420678 57.13200723286718,90.42586856731214 47.56238698028028,94.04250891320407 46.0,96.16994224512018 46.0,100.63754702103324 46.39059674460441,101.48851855704561 46.39059674460441,103.40320357563905 47.367088607512414,106.16885741939768 51.85895117558539,112.55112517438829 53.03074141126126,115.31677005114034 54.007233273237944,116.38047889783047 54.397830018773675,117.23144568665884 60.452079565264285,124.0391707548406 62.01446654647589,125.31561737623997 63.77215189859271,127.65576801681891 67.28752260375768,129.99591671628878 71.58408679999411,131.27236064360477 74.90415913332254,131.91058239061385 78.22423146478832,131.27236064360477 79.78661844599992,131.27236064360477 81.54430379904807,132.1233229408972 84.0831826403737,132.5488039937336 89.3562386976555,134.6762082935311 91.11392405163497,134.88894863519818 91.89511754084378,134.4634679351002 92.87160940375179,134.4634679351002 95.80108499154449,135.5271695642732 98.1446654619649,135.95265010325238 110.6437613023445,136.16539034922607 113.76853526290506,135.95265010325238 116.69801084976643,136.37813057843596 124.90054249484092,136.37813057843596 128.61121157370508,135.95265010325238 131.3453887887299,135.95265010325238 132.51717902440578,135.5271695642732 133.49367088731378,134.4634679351002 137.00904159247875,129.14495377754793 138.1808318272233,127.4430271293968 142.67269439529628,118.08241221797653 144.62567812018096,111.06193065620027 144.82097649294883,107.4453121253755 145.21157323755324,106.8070848446805 145.01627486478537,104.67965953284875 145.7974683549255,100.63754702103324 145.7974683549255,97.65914462297224 146.18806509952992,95.95719898398966 145.9927667286247,95.10622577904724 146.18806509952992,93.19153513107449 145.4068716103211,88.51117474259809 145.21157323755324,85.95824762200937 144.03978300187737,81.27787523553707 143.84448463004082,78.72494157007895 143.06329113990068,75.53377124015242 142.67269439529628,69.1514197520446 142.086799277924,67.44945691665635 142.086799277924,65.32200192869641 141.11030741594732,62.130816439632326 141.5009041596204,58.3013890881557 140.91500904224813,55.96118092513643 141.30560578685254,54.68470292724669 138.1808318272233,49.15329159703106 135.83725135680288,46.174834850477055 132.3218806516379,44.26011099526659 129.58770343661308,43.62186942156404 122.94755877088755,44.89835242461413 114.54972875211388,47.02582281292416 108.3001808328554,48.08955740532838 105.95660036243498,49.36603838694282 102.83182640187442,50.00427866121754 99.12115732394159,51.70625202008523 96.77757685352117,53.1954778668005 95.01989150140435,53.40822435240261 88.37974683567882,56.59941970743239 86.23146473802626,57.23765834537335 82.32549728732556,60.003357441397384 75.29475587792695,62.55630804714747 70.41229656338692,63.83278248319402 68.06871609482914,63.407291068462655 66.7016274863854,64.68376511987299 65.72513562440872,65.10925634182058 62.99095840938389,65.74749305471778 59.67088607605547,67.44945691665635 53.616636528633535,69.57691029994749 52.2495479201898,70.42789120483212 51.66365280281752,71.49161697365344 52.2495479201898,75.74651604075916 51.85895117558539,79.1504306748975 53.03074141126126,81.7033639550209 55.17902350798249,83.40531819150783 55.96021699812263,84.68178319581784 56.54611211642623,85.95824762200937 57.32730560563505,90.00038116285577 58.30379746854305,90.42586856731214 59.08499095868319,90.21312487311661 61.623869800940156,88.51117474259809 69.6311030741781,84.89452730654739 70.41229656338692,84.89452730654739 71.58408679999411,85.7455035909079 71.58408679999411,92.34056109259836 72.16998191643506,97.23365830909461 72.16998191643506,100.63754702103324 72.5605786619708,102.76497538015246 72.36528029013425,103.1904608597979 72.75587703473866,109.57273535174318 72.5605786619708,115.52951185265556 73.5370705248788,118.29515381087549 74.51356238685548,119.35886153415777 77.24773960188031,119.99708597618155 85.25497287604958,122.97546479525045 86.62206148263067,122.97546479525045 88.77034358121455,123.82642959454097 91.11392405163497,124.25191189814359 96.77757685352117,124.46465302607976 104.3942133821547,124.25191189814359 104.98010849859565,123.82642959454097 105.37070524506271,122.97546479525045 105.37070524506271,122.12449973914772 106.15189873427153,119.99708597618155 105.56600361689925,118.93337849294767 105.95660036243498,115.95499540725723 105.56600361689925,114.67854455113411 104.98010849859565,113.82757699303329 102.63652802910656,112.97660917812027 102.44122965727001,107.87079689861275 102.05063291173428,106.8070848446805 101.85533453896642,105.10514472308569 94.8245931295678,104.25417427765206 78.02893309295177,104.46691691339947 72.5605786619708,104.04143162653781 71.97468354552984,102.55223261704668 72.16998191643506,98.08463087235577 71.77938517183065,97.44640147429891 71.97468354552984,95.53171241399832 71.77938517183065,87.02196753630415 72.16998191643506,85.7455035909079 72.16998191643506,80.00140869105235 72.5605786619708,76.59749508462846 73.73236889764667,76.17200559494086 77.83363472018391,76.38475034735166 81.93490054365247,76.17200559494086 85.64556962065399,76.38475034735166 93.06690777651966,76.38475034735166 96.38698010891676,76.59749508462846 99.12115732394159,76.38475034735166 101.66003616712987,75.53377124015242 102.44122965727001,71.49161697365344 102.24593128450215,71.27887185197324 102.63652802910656,68.08769310032949 105.37070524506271,62.343562251189724 105.17540687229484,52.34449176490307 104.78481012769043,50.00427866121754 105.17540687229484,48.7277979683131 106.34719710703939,48.08955740532838 112.40144665539265,47.45131669798866 122.16636528074741,45.53659370960668 128.0253164563328,44.685605297097936 132.51717902440578,45.323846630519256 135.05605786759406,46.600328863132745 136.8137432197109,48.7277979683131 139.54792043473572,53.40822435240261 140.71971066948026,56.59941970743239 140.91500904224813,58.3013890881557 142.086799277924,62.130816439632326 142.28209764976054,68.7259291394148 142.67269439529628,70.64063639054075 142.4773960225284,71.49161697365344 143.4538878845051,74.04455718421377 144.23508137557656,75.32102642278187 144.82097649294883,75.95926082576625 145.7974683549255,76.17200559494086 150.67992766853422,75.74651604075916 153.6094032553956,75.10828158981167 154.0,75.32102642278187" stroke="#4DD2FF" stroke-linecap="round" stroke-linejoin="round" stroke-width="0.5"><title>2025-04-25 3.9km</title><desc>14282101435</desc></polyline><polyline fill="none" points="142.21087246015668,242.0002145303879 137.3168582636863,242.3335454314947 136.7051064874977,242.0002145303879 136.39923060126603,222.66697911708616 135.48160293884575,219.00032145855948 133.3404717259109,215.6669936699327 129.66996107809246,212.66699650511146 124.77594687975943,211.0003305322025 119.27018090710044,211.0003305322025 115.90554614365101,212.33366336068138 111.9291596096009,215.33366075274535 109.78802839666605,219.00032145855948 108.87040073424578,222.3336467279587 109.17627662234008,251.66680045146495 110.39978017099202,255.66676084068604 112.23503549769521,258.6667287524324 116.21142203174531,261.6666946231853 119.5760567933321,263.0000121323392 123.85831921733916,263.333341446938 127.22295397892594,262.6666827930603 131.1993405148387,260.66670622630045 133.6463476140052,258.333399085328 135.17572705075145,256.33342055324465 136.7051064874977,251.333470254438 136.39923060126603,240.0002285905648 136.7051064874977,224.33364068041556 135.48160293884575,218.66698879376054 133.6463476140052,215.00032781041227 128.44645752757788,211.0003305322025 122.94069155491889,210.33366396604106 118.96430501900613,210.66699726204388 114.98791848309338,212.66699650511146 112.23503549769521,215.00032781041227 109.48215251043439,219.33365409937687 108.56452484801412,222.66697911708616 108.25864895991981,249.6668188960757 109.78802839666605,256.0000907101203 111.62328371964395,259.0000583939254 115.59967025741935,262.00002403813414 121.71718800626695,263.333341446938 125.08182276785374,263.333341446938 129.36408518999815,262.00002403813414 132.72871995158494,259.6667176024057 135.48160293884575,256.0000907101203 136.7051064874977,253.0001209846232 136.7051064874977,221.33364941272885 136.39923060126603,219.00032145855948 134.25809938833117,215.33366075274535 131.81109228916466,213.33366271830164 126.91707809083164,211.33366377698258 123.5524433311075,210.66699726204388 118.96430501900613,211.0003305322025 115.29379436932504,212.66699650511146 111.9291596096009,215.33366075274535 109.48215251043439,220.00031930417754 108.56452484801412,224.00030841911212 108.87040073424578,249.3334885481745 108.25864895991981,253.0001209846232 113.4585390444845,260.33337670960464 116.51729791983962,262.6666827930603 121.41131211817265,264.0 126.91707809083164,263.333341446938 131.81109228916466,261.0000357166864 134.56397527642548,258.0000693926122 136.39923060126603,254.00011111958884 137.010982375592,247.66683643334545 137.010982375592,237.6669105142355 136.7051064874977,222.3336467279587 136.09335471317172,216.6669922710862 134.8698511645198,215.00032781041227 131.81109228916466,213.00032962462865 126.91707809083164,211.0003305322025 123.85831921733916,210.33366396604106 120.18780856952071,210.66699726204388 115.90554614365101,212.0003301918041 112.54091138392687,215.00032781041227 110.70565605908632,217.66699064616114 109.48215251043439,220.33365186932497 108.87040073424578,223.0003114801366 109.17627662234008,225.33363731694408 108.56452484801412,250.66680978657678 108.87040073424578,253.0001209846232 111.31740783527493,258.6667287524324 114.07029082253575,261.33336518215947 116.51729791983962,263.0000121323392 121.10543623007834,264.0 124.47007099352777,264.0 128.75233341567218,262.6666827930603 132.72871995158494,259.6667176024057 135.17572705075145,256.66675037145615 136.7051064874977,252.6667908881791 137.010982375592,250.3334795148112 136.7051064874977,221.33364941272885 135.48160293884575,217.66699064616114 132.72871995158494,214.33366184891202 126.61120220273733,211.0003305322025 124.16419510543346,210.66699726204388 120.18780856952071,210.66699726204388 114.98791848309338,212.66699650511146 111.62328371964395,216.00032656197436 108.56452484801412,221.66698187636212 108.87040073424578,241.00022167386487 108.25864895991981,244.33353031310253 108.87040073424578,251.333470254438 109.78802839666605,254.6667710833717 111.01153194718063,257.33340993267484 113.15266315825284,259.6667176024057 117.12904969416559,262.00002403813414 117.4349255822599,261.33336518215947 116.82317380793393,260.33337670960464 114.07029082253575,259.3333880112041 111.9291596096009,257.33340993267484 109.48215251043439,256.66675037145615 108.87040073424578,254.33344111428596 107.9527730718255,253.3334510542918 103.36463476158679,252.6667908881791 103.05875887349248,252.00013062241487 102.44700709916651,252.00013062241487 101.83525532670319,253.0001209846232 101.22350354865193,252.33346076798625 101.22350354865193,251.66680045146495 101.83525532670319,251.333470254438 103.97638653591275,251.00014003366232 105.19989008642733,250.3334795148112 102.44700709916651,246.33351428806782 103.36463476158679,246.00018368847668 102.75288298726082,235.66692260908894 103.05875887349248,235.33359120390378 103.97638653591275,233.00027065863833 103.97638653591275,229.33362159319222 103.05875887349248,227.33362990850583 103.67051064968109,220.33365186932497 101.52937943674624,216.33365942980163 100.3058758880943,210.00033064512536 99.08237233944237,208.00033019226976 99.08237233944237,205.3336615106091 98.47062056325376,201.66698943963274 98.77649645134807,194.3336361499969 98.47062056325376,190.0002852922771 100.3058758880943,186.3336004712619 101.52937943674624,185.33359499066137 105.8116418607533,184.3335892832838 106.1175177488476,183.00024798768573 106.1175177488476,181.33357080072165 104.89401419833302,180.00022859801538 104.89401419833302,179.00022168108262 106.1175177488476,176.66687132697552 105.50576597452164,176.33353546098806 102.75288298726082,176.0001995707862 101.22350354865193,177.33354298304766 99.38824822567403,177.66687877243385 98.1647446770221,179.3335573459044 96.63536523841321,180.33356418646872 96.32948935218155,181.33357080072165 94.80010991543531,181.6669062890578 86.23558506555855,188.00027576787397 84.70620563067496,190.0002852922771 82.56507441960275,191.00028971442953 77.67106022126973,195.00030513550155 76.75343255884945,194.00030162045732 76.44755667075515,193.3336324840784 74.91817723587155,192.33362859115005 74.30642545968294,191.00028971442953 73.38879779726267,190.33362012496218 72.16529424861073,191.00028971442953 69.71828714758158,194.00030162045732 67.27128005027771,196.33364280266687 64.51839706487954,197.6669800663367 62.683141738176346,199.33365107909776 58.706755202263594,201.66698943963274 57.78912753984332,203.00032509071752 59.62438286468387,202.66699121519923 69.10653537325561,193.6669670646079 72.7770460229367,191.33362447144464 77.97693610750139,186.3336004712619 84.40032974258065,181.6669062890578 87.76496450603008,177.66687877243385 90.82372337765992,176.0001995707862 92.65897870250046,174.00018369569443 94.18835814110935,173.66684762877412 103.05875887349248,167.0001209906768 103.36463476158679,165.66677445266396 105.19989008642733,163.33341704285704 106.42339363694191,160.00004717195407 107.64689718559384,158.33336129109375 107.64689718559384,157.0000121332705 107.9527730718255,156.0" stroke="#4DD2FF" stroke-linecap="round" stroke-linejoin="round" stroke-width="0.5"><title>2025-04-24 3.1km</title><desc>14268683593</desc></polyline></svg>