<?xml version="1.0" encoding="utf-8" ?>
<svg baseProfile="full" height="300mm" version="1.1" viewBox="0,0,200,300" width="200mm" xmlns="http://www.w3.org/2000/svg" xmlns:ev="http://www.w3.org/2001/xml-events" xmlns:xlink="http://www.w3.org/1999/xlink"><defs /><rect fill="#222222" height="300" width="200" x="0" y="0" /><text fill="#FFFFFF" style="font-size:12px; font-family:Arial; font-weight:bold;" x="10" y="20">Over 1.5km Runs</text><text fill="#FFFFFF" style="font-size:4px; font-family:Arial" x="10" y="280">ATHLETE</text><text fill="#FFFFFF" style="font-size:9px; font-family:Arial" x="10" y="290">yiling615</text><text fill="#FFFFFF" style="font-size:4px; font-family:Arial" x="65" y="280">SPECIAL TRACKS</text><rect fill="yellow" height="2.6" width="2.6" x="65" y="283" /><text fill="#FFFFFF" style="font-size:3px; font-family:Arial" x="70" y="285.5">Over 20.0 km</text><rect fill="red" height="2.6" width="2.6" x="65" y="287" /><text fill="#FFFFFF" style="font-size:3px; font-family:Arial" x="70" y="289.5">Over 40.0 km</text><text fill="#FFFFFF" style="font-size:4px; font-family:Arial" x="120" y="280">STATISTICS</text><text fill="#FFFFFF" style="font-size:3px; font-family:Arial" x="120" y="285">Number: 2</text><text fill="#FFFFFF" style="font-size:3px; font-family:Arial" x="120" y="290">Weekly: 1.0</text><text fill="#FFFFFF" style="font-size:3px; font-family:Arial" x="141" y="285">Total: 5.2 km</text><text fill="#FFFFFF" style="font-size:3px; font-family:Arial" x="141" y="290">Avg: 2.6 km</text><text fill="#FFFFFF" style="font-size:3px; font-family:Arial" x="167" y="285">Min: 2.1 km</text><text fill="#FFFFFF" style="font-size:3px; font-family:Arial" x="167" y="290">Max: 3.1 km</text><polyline fill="none" points="142.21087246015668,122.0002145303879 137.3168582636863,122.33354543149471 136.7051064874977,122.0002145303879 136.39923060126603,102.66697911708616 135.48160293884575,99.00032145855948 133.3404717259109,95.66699366993271 129.66996107809246,92.66699650511146 124.77594687975943,91.0003305322025 119.27018090710044,91.0003305322025 115.90554614365101,92.33366336068138 111.9291596096009,95.33366075274535 109.78802839666605,99.00032145855948 108.87040073424578,102.3336467279587 109.17627662234008,131.66680045146495 110.39978017099202,135.66676084068604 112.23503549769521,138.6667287524324 116.21142203174531,141.66669462318532 119.5760567933321,143.00001213233918 123.85831921733916,143.333341446938 127.22295397892594,142.66668279306032 131.1993405148387,140.66670622630045 133.6463476140052,138.33339908532798 135.17572705075145,136.33342055324465 136.7051064874977,131.333470254438 136.39923060126603,120.0002285905648 136.7051064874977,104.33364068041556 135.48160293884575,98.66698879376054 133.6463476140052,95.00032781041227 128.44645752757788,91.0003305322025 122.94069155491889,90.33366396604106 118.96430501900613,90.66699726204388 114.98791848309338,92.66699650511146 112.23503549769521,95.00032781041227 109.48215251043439,99.33365409937687 108.56452484801412,102.66697911708616 108.25864895991981,129.6668188960757 109.78802839666605,136.00009071012028 111.62328371964395,139.00005839392543 115.59967025741935,142.00002403813414 121.71718800626695,143.333341446938 125.08182276785374,143.333341446938 129.36408518999815,142.00002403813414 132.72871995158494,139.6667176024057 135.48160293884575,136.00009071012028 136.7051064874977,133.0001209846232 136.7051064874977,101.33364941272885 136.39923060126603,99.00032145855948 134.25809938833117,95.33366075274535 131.81109228916466,93.33366271830164 126.91707809083164,91.33366377698258 123.5524433311075,90.66699726204388 118.96430501900613,91.0003305322025 115.29379436932504,92.66699650511146 111.9291596096009,95.33366075274535 109.48215251043439,100.00031930417754 108.56452484801412,104.00030841911212 108.87040073424578,129.3334885481745 108.25864895991981,133.0001209846232 113.4585390444845,140.33337670960464 116.51729791983962,142.66668279306032 121.41131211817265,144.0 126.91707809083164,143.333341446938 131.81109228916466,141.0000357166864 134.56397527642548,138.0000693926122 136.39923060126603,134.00011111958884 137.010982375592,127.66683643334545 137.010982375592,117.6669105142355 136.7051064874977,102.3336467279587 136.09335471317172,96.6669922710862 134.8698511645198,95.00032781041227 131.81109228916466,93.00032962462865 126.91707809083164,91.0003305322025 123.85831921733916,90.33366396604106 120.18780856952071,90.66699726204388 115.90554614365101,92.0003301918041 112.54091138392687,95.00032781041227 110.70565605908632,97.66699064616114 109.48215251043439,100.33365186932497 108.87040073424578,103.00031148013659 109.17627662234008,105.33363731694408 108.56452484801412,130.66680978657678 108.87040073424578,133.0001209846232 111.31740783527493,138.6667287524324 114.07029082253575,141.33336518215947 116.51729791983962,143.00001213233918 121.10543623007834,144.0 124.47007099352777,144.0 128.75233341567218,142.66668279306032 132.72871995158494,139.6667176024057 135.17572705075145,136.66675037145615 136.7051064874977,132.6667908881791 137.010982375592,130.3334795148112 136.7051064874977,101.33364941272885 135.48160293884575,97.66699064616114 132.72871995158494,94.33366184891202 126.61120220273733,91.0003305322025 124.16419510543346,90.66699726204388 120.18780856952071,90.66699726204388 114.98791848309338,92.66699650511146 111.62328371964395,96.00032656197436 108.56452484801412,101.66698187636212 108.87040073424578,121.00022167386487 108.25864895991981,124.33353031310253 108.87040073424578,131.333470254438 109.78802839666605,134.6667710833717 111.01153194718063,137.33340993267484 113.15266315825284,139.6667176024057 117.12904969416559,142.00002403813414 117.4349255822599,141.33336518215947 116.82317380793393,140.33337670960464 114.07029082253575,139.33338801120408 111.9291596096009,137.33340993267484 109.48215251043439,136.66675037145615 108.87040073424578,134.33344111428596 107.9527730718255,133.3334510542918 103.36463476158679,132.6667908881791 103.05875887349248,132.00013062241487 102.44700709916651,132.00013062241487 101.83525532670319,133.0001209846232 101.22350354865193,132.33346076798625 101.22350354865193,131.66680045146495 101.83525532670319,131.333470254438 103.97638653591275,131.00014003366232 105.19989008642733,130.3334795148112 102.44700709916651,126.33351428806782 103.36463476158679,126.00018368847668 102.75288298726082,115.66692260908894 103.05875887349248,115.33359120390378 103.97638653591275,113.00027065863833 103.97638653591275,109.33362159319222 103.05875887349248,107.33362990850583 103.67051064968109,100.33365186932497 101.52937943674624,96.33365942980163 100.3058758880943,90.00033064512536 99.08237233944237,88.00033019226976 99.08237233944237,85.33366151060909 98.47062056325376,81.66698943963274 98.77649645134807,74.33363614999689 98.47062056325376,70.00028529227711 100.3058758880943,66.33360047126189 101.52937943674624,65.33359499066137 105.8116418607533,64.3335892832838 106.1175177488476,63.000247987685725 106.1175177488476,61.333570800721645 104.89401419833302,60.00022859801538 104.89401419833302,59.00022168108262 106.1175177488476,56.666871326975524 105.50576597452164,56.33353546098806 102.75288298726082,56.00019957078621 101.22350354865193,57.333542983047664 99.38824822567403,57.66687877243385 98.1647446770221,59.33355734590441 96.63536523841321,60.33356418646872 96.32948935218155,61.333570800721645 94.80010991543531,61.666906289057806 86.23558506555855,68.00027576787397 84.70620563067496,70.00028529227711 82.56507441960275,71.00028971442953 77.67106022126973,75.00030513550155 76.75343255884945,74.00030162045732 76.44755667075515,73.33363248407841 74.91817723587155,72.33362859115005 74.30642545968294,71.00028971442953 73.38879779726267,70.33362012496218 72.16529424861073,71.00028971442953 69.71828714758158,74.00030162045732 67.27128005027771,76.33364280266687 64.51839706487954,77.66698006633669 62.683141738176346,79.33365107909776 58.706755202263594,81.66698943963274 57.78912753984332,83.00032509071752 59.62438286468387,82.66699121519923 69.10653537325561,73.66696706460789 72.7770460229367,71.33362447144464 77.97693610750139,66.33360047126189 84.40032974258065,61.666906289057806 87.76496450603008,57.66687877243385 90.82372337765992,56.00019957078621 92.65897870250046,54.00018369569443 94.18835814110935,53.66684762877412 103.05875887349248,47.000120990676805 103.36463476158679,45.66677445266396 105.19989008642733,43.333417042857036 106.42339363694191,40.000047171954066 107.64689718559384,38.33336129109375 107.64689718559384,37.0000121332705 107.9527730718255,36.0" stroke="#4DD2FF" stroke-linecap="round" stroke-linejoin="round" stroke-width="0.5"><title>2025-04-24 3.1km</title><desc>14268683593</desc></polyline><polyline fill="none" points="110.84381338767707,202.1258648284711 110.62474645068869,202.1258648284711 110.62474645068869,201.88725186348893 110.07707910705358,201.76794536737725 106.68154158210382,202.48378420842346 103.2860040566884,202.24517129769083 102.30020284000784,202.48378420842346 101.64300202857703,203.08031632902566 98.24746450269595,203.79615457658656 95.29006085172296,204.15407357912045 93.53752535488456,204.6312987897545 92.66125760646537,204.39268620242365 91.56592292059213,204.86991134111304 90.25152129819617,205.1085238570813 83.78904665308073,205.94366737781093 81.05070993863046,206.65950433106627 78.8600405678153,207.61395309818909 75.35496957413852,207.9718712377362 73.93103448254988,208.68770727398805 70.20689655188471,209.52284890704323 68.23529411759228,210.11937837547157 66.2636916837655,210.47729594819248 64.07302231248468,211.55104818206746 62.43002028390765,211.55104818206746 59.691683570388705,212.6247996877646 56.62474645068869,212.744105365593 54.762677484657615,213.10202234552708 52.35294117638841,214.41438391210977 50.70993914781138,215.01091153745074 48.84787018271163,216.08466069656424 47.09533468540758,216.6811876927968 46.76673427969217,217.15840912773274 46.76673427969217,217.87424101063516 46.10953346826136,219.5445141454693 46.0,220.37965005193837 46.65720081143081,220.61826023005415 47.971602434292436,220.14103983796667 52.02434077067301,219.18659862189088 55.63894523354247,217.75493571942206 59.472616632469,216.80049306491856 61.444219066761434,215.60743893799372 64.1825557812117,215.2495225245366 64.73022312344983,215.48813347599935 65.71602434059605,216.32327152218204 66.15415821503848,217.63563041889574 66.2636916837655,218.82868301752023 66.92089249426499,219.78312444943003 68.56389452284202,220.97617542988155 69.33062880346552,222.28853047033772 69.65922920918092,223.36227469425648 69.65922920918092,223.95879894844256 69.33062880346552,224.436018189881 69.54969573998824,224.91323728777934 70.31643002014607,225.15184678277 72.50709939142689,225.03254203940742 76.23123732209206,223.95879894844256 80.61257606511936,222.40783541987184 85.4320486811921,219.5445141454693 88.38945233263075,218.2321568307234 90.14198782946914,217.75493571942206 93.64705882361159,217.15840912773274 98.13793103490025,217.75493571942206 101.42393509112298,217.75493571942206 106.35294117638841,216.5618823117111 107.88640973623842,215.9653552704258 109.85801217053086,215.60743893799372 112.70588235324249,214.77230051427614 114.78701825579628,214.41438391210977 115.55375253548846,213.34063362027518 116.64908722089604,213.10202234552708 117.85395537503064,212.38618830486666 119.82555780932307,210.7159076188691 122.12576064933091,209.76146072137635 123.22109533427283,208.92631921416614 123.98782961489633,207.9718712377362 124.20689655188471,207.01742268609814 124.20689655188471,206.06297355901916 123.76876267744228,203.91546091984492 123.54969573998824,203.31892911402974 123.11156186647713,203.08031632902566 119.60649087233469,204.15407357912045 110.18661257624626,206.18227973149624 110.62474645068869,205.82436118740588 114.67748478706926,204.5119925007457 118.40162271773443,203.79615457658656 122.12576064933091,202.603090650402 123.54969573998824,202.48378420842346 126.06896551698446,202.603090650402 130.34077079128474,202.24517129769083 132.96957403654233,201.648638862418 134.17444219067693,201.17141275270842 135.5983772817999,199.85904020874295 136.03651115624234,198.7852800458204 136.69371196767315,198.54666657745838 140.74645030405372,198.0694395324681 142.71805273834616,197.5922123438213 144.79918864089996,196.75706441758666 149.509127789177,195.68330215057358 151.042596349027,195.56399518728722 152.24746450269595,195.68330215057358 153.23326571984217,195.32538123324048 153.56186612555757,194.9674602348823 154.0,194.84815321723" stroke="#4DD2FF" stroke-linecap="round" stroke-linejoin="round" stroke-width="0.5"><title>2025-04-18 2.1km</title><desc>14213136519</desc></polyline></svg>