<?xml version="1.0" encoding="utf-8" ?>
<svg baseProfile="full" height="200mm" version="1.1" viewBox="0,0,200,200" width="200mm" xmlns="http://www.w3.org/2000/svg" xmlns:ev="http://www.w3.org/2001/xml-events" xmlns:xlink="http://www.w3.org/1999/xlink"><defs /><rect fill="#1a1a1a" height="200" width="200" x="0" y="0" /><text alignment-baseline="middle" fill="#e1ed5e" style="dominant-baseline: central; font-size:9.0px; font-family:Arial;" text-anchor="middle" x="100.0" y="100.0">2024</text><line stroke="#e1ed5e" stroke-width="0.3" x1="100.0" x2="100.0" y1="15.0" y2="10.0" /><path d="M 100.0 14.0 a86.0,86.0 0 0,1 42.35913384403234,11.155469271406648" fill="none" id="id1" stroke="none" /><text fill="#e1ed5e" style="font-size:6.75px; font-family:Arial;" text-anchor="middle"><textPath startOffset="22.145653131862478" xlink:href="#id1">January</textPath></text><line stroke="#e1ed5e" stroke-width="0.3" x1="143.13028292997686" x2="145.6673583964461" y1="26.7553504044142" y2="22.446841604673864" /><path d="M 143.63769802327073 25.89364864446614 a86.0,86.0 0 0,1 29.32050498858742,28.57503671076993" fill="none" id="id2" stroke="none" /><text fill="#e1ed5e" style="font-size:6.75px; font-family:Arial;" text-anchor="middle"><textPath startOffset="20.669276256404974" xlink:href="#id2">February</textPath></text><line stroke="#e1ed5e" stroke-width="0.3" x1="172.87174338648825" x2="177.1583165268699" y1="56.24261187166439" y2="53.66864786411523" /><path d="M 173.72905801456457 55.72781907015455 a86.0,86.0 0 0,1 12.242430191666344,42.057860355516425" fill="none" id="id3" stroke="none" /><text fill="#e1ed5e" style="font-size:6.75px; font-family:Arial;" text-anchor="middle"><textPath startOffset="22.145653131862474" xlink:href="#id3">March</textPath></text><line stroke="#e1ed5e" stroke-width="0.3" x1="184.99686870605535" x2="189.99668451229388" y1="99.2704041080226" y2="99.22748670261217" /><path d="M 185.99683186730306 99.26182062694052 a86.0,86.0 0 0,1 -10.086455211305974,41.156179273409016" fill="none" id="id4" stroke="none" /><text fill="#e1ed5e" style="font-size:6.75px; font-family:Arial;" text-anchor="middle"><textPath startOffset="21.40746469413373" xlink:href="#id4">April</textPath></text><line stroke="#e1ed5e" stroke-width="0.3" x1="174.33088141563837" x2="178.70328620479359" y1="141.23008692659167" y2="143.65538615756765" /><path d="M 175.20536237346943 141.71514677278685 a86.0,86.0 0 0,1 -30.301960400862466,31.631185727798858" fill="none" id="id5" stroke="none" /><text fill="#e1ed5e" style="font-size:6.75px; font-family:Arial;" text-anchor="middle"><textPath startOffset="22.145653131862474" xlink:href="#id5">May</textPath></text><path d="M 115.6541949942343 113.99807769240083 l 12.71272125741447 11.367793738909382 a38.05403225806452,38.05403225806452 0 0,0 -0.4396188437163677,0.48321811913057383 l -12.515704712856223 -11.584349433597628" fill="red" stroke="none" /><path d="M 113.31354834802062 116.24036423190432 l 21.527148740146245 26.259621197554974 a54.95564516129032,54.95564516129032 0 0,0 -0.7347026211267786,0.5918244247100043 l -21.073195348664214 -26.625293916058382" fill="red" stroke="none" /><path d="M 112.7482090630111 116.68781488649013 l 20.94201763012389 27.41377332562935 a55.49758064516129,55.49758064516129 0 0,0 -0.7620267381769507,0.57183907069018 l -20.468337903036172 -27.769231423583545" fill="red" stroke="none" /><path d="M 111.8722381534696 117.32195027204791 l 11.077564148035746 16.162497148999545 a40.59435483870968,40.59435483870968 0 0,0 -0.5781867721221637,0.3890298639395811 l -10.798481087816578 -16.35027668699625" fill="red" stroke="none" /><path d="M 111.5731344415666 117.5232005979908 l 19.692994896536717 29.8177042433553 a56.733870967741936,56.733870967741936 0 0,0 -0.8172767193056594,0.5297488953967362 l -19.178232544974048 -30.151366980455933" fill="red" stroke="none" /><line stroke="#e1ed5e" stroke-width="0.3" x1="143.1302829299769" x2="145.66735839644613" y1="173.24464959558577" y2="177.55315839532614" /><path d="M 143.63769802327073 174.10635135553383 a86.0,86.0 0 0,1 -40.68552437913181,11.842963189579606" fill="none" id="id6" stroke="none" /><text fill="#e1ed5e" style="font-size:6.75px; font-family:Arial;" text-anchor="middle"><textPath startOffset="21.407464694133747" xlink:href="#id6">June</textPath></text><line stroke="#e1ed5e" stroke-width="0.3" x1="101.45913802915013" x2="101.54496967792366" y1="184.9874750549273" y2="189.98673829345242" /><path d="M 101.47630435890484 185.9873277026323 a86.0,86.0 0 0,1 -42.54439059252881,-10.42667462771756" fill="none" id="id7" stroke="none" /><text fill="#e1ed5e" style="font-size:6.75px; font-family:Arial;" text-anchor="middle"><textPath startOffset="22.145653131862474" xlink:href="#id7">July</textPath></text><path d="M 99.27912038922189 120.98762331915562 l -0.9476078754583165 27.588569363083593 a48.60483870967742,48.60483870967742 0 0,0 -0.8336290863512846,-0.035799619853122536 l 1.4210627224104397 -27.56823717480464" fill="red" stroke="none" /><path d="M 95.70440661134978 120.55596938700252 l -9.45376964324712 45.239710046072474 a67.21693548387097,67.21693548387097 0 0,0 -1.1274443293860061,-0.24572124408650825 l 10.228976389252264 -45.07075734385225" fill="red" stroke="none" /><path d="M 95.00130118170881 120.39639698878247 l -13.875420429482473 56.61645035112034 a79.29193548387096,79.29193548387096 0 0,0 -1.3192467879990135,-0.33534737463491815 l 14.845272510706865 -56.36991774465016" fill="red" stroke="none" /><path d="M 90.28995756902619 118.62028667847754 l -29.130127292921436 55.86086003543262 a84.0,84.0 0 0,0 -1.2728447368537525,-0.6777181291097074 l 30.084760845561753 -55.35257143860034" fill="red" stroke="none" /><line stroke="#e1ed5e" stroke-width="0.3" x1="58.13341422392154" x2="55.67067388415222" y1="173.97424548756322" y2="178.32567169271397" /><path d="M 57.64086615596768 174.84453072859336 a86.0,86.0 0 0,1 -31.369924170532247,-30.572349798747897" fill="none" id="id8" stroke="none" /><text fill="#e1ed5e" style="font-size:6.75px; font-family:Arial;" text-anchor="middle"><textPath startOffset="22.145653131862474" xlink:href="#id8">August</textPath></text><path d="M 89.34428304082925 118.09573695890944 l -28.615756027450484 48.59580973642615 a77.39516129032259,77.39516129032259 0 0,0 -1.1390623407520626,-0.6839742077022997 l 29.445751124759973 -48.09742152818793" fill="red" stroke="none" /><path d="M 89.03521579738668 117.91015095944536 l -24.93604149303997 40.73114976260959 a68.75806451612902,68.75806451612902 0 0,0 -1.00136583638207,-0.6249263425994487 l 25.631571458211752 -40.29708762316859" fill="red" stroke="none" /><path d="M 88.1277618465304 117.32195027204791 l -33.414605770652315 48.75290842697356 a80.10483870967741,80.10483870967741 0 0,0 -1.1275896925387818,-0.7871451784207577 l 34.246590554364865 -48.17211843274767" fill="red" stroke="none" /><path d="M 87.54013794807813 116.9041958592261 l -35.26944822761756 47.849780214422296 a80.44354838709677,80.44354838709677 0 0,0 -1.1045550828014998,-0.8288787262063945 l 36.08565629932983 -47.23728246095188" fill="red" stroke="none" /><path d="M 86.96720088162412 116.46651593811092 l -28.79828192286283 36.38568844389026 a67.40322580645162,67.40322580645162 0 0,0 -0.9011144628919822,-0.7258740247598596 l 29.418647156110076 -35.88596612533699" fill="red" stroke="none" /><path d="M 82.98947788004972 112.3143062007846 l -44.4468481198701 32.176090395598486 a75.87096774193549,75.87096774193549 0 0,0 -0.754680934343368,-1.0615532454366308 l 44.99264415274342 -31.408359923452352" fill="red" stroke="none" /><path d="M 82.18462484594161 111.11811171558189 l -49.42329881448453 30.84379379161428 a79.25806451612902,79.25806451612902 0 0,0 -0.7104241341521823,-1.160424432691188 l 49.94549091309212 -29.990832242798536" fill="red" stroke="none" /><path d="M 81.99639281039703 110.81064883170644 l -36.297595140328575 21.7956629671501 a63.33870967741935,63.33870967741935 0 0,0 -0.5517292936408549,-0.9369569601468468 l 36.666398144099205 -21.169354838709694" fill="red" stroke="none" /><line stroke="#e1ed5e" stroke-width="0.3" x1="26.387840678322732" x2="22.057713659400548" y1="142.50000000000003" y2="145.00000000000006" /><path d="M 25.521815274538298 143.00000000000003 a86.0,86.0 0 0,1 -11.493303480769221,-40.785679425670985" fill="none" id="id9" stroke="none" /><text fill="#e1ed5e" style="font-size:6.75px; font-family:Arial;" text-anchor="middle"><textPath startOffset="21.40746469413373" xlink:href="#id9">September</textPath></text><line stroke="#e1ed5e" stroke-width="0.3" x1="15.003131293944662" x2="10.003315487706104" y1="100.72959589197737" y2="100.7725132973878" /><path d="M 14.003168132696942 100.73817937305945 a86.0,86.0 0 0,1 10.791469493833604,-42.45332614584628" fill="none" id="id10" stroke="none" /><text fill="#e1ed5e" style="font-size:6.75px; font-family:Arial;" text-anchor="middle"><textPath startOffset="22.145653131862435" xlink:href="#id10">October</textPath></text><line stroke="#e1ed5e" stroke-width="0.3" x1="26.387840678322718" x2="22.05771365940052" y1="57.49999999999999" y2="54.99999999999999" /><path d="M 25.521815274538284 56.99999999999999 a86.0,86.0 0 0,1 29.574782752854787,-30.34633250058573" fill="none" id="id11" stroke="none" /><text fill="#e1ed5e" style="font-size:6.75px; font-family:Arial;" text-anchor="middle"><textPath startOffset="21.40746469413373" xlink:href="#id11">November</textPath></text><line stroke="#e1ed5e" stroke-width="0.3" x1="56.869717070023135" x2="54.33264160355391" y1="26.7553504044142" y2="22.446841604673864" /><path d="M 56.362301976729285 25.89364864446614 a86.0,86.0 0 0,1 42.16139366436587,-11.88097634709845" fill="none" id="id12" stroke="none" /><text fill="#e1ed5e" style="font-size:6.75px; font-family:Arial;" text-anchor="middle"><textPath startOffset="22.145653131862474" xlink:href="#id12">December</textPath></text></svg>